<svg width="21" height="22" viewBox="0 0 21 22" fill="none" xmlns="http://www.w3.org/2000/svg">
<path d="M12.357 11L20 18.643C20.6509 19.2938 20.6509 20.3491 20 21C19.3491 21.6509 18.2939 21.6509 17.643 21L8.35009 11.7071C7.95956 11.3166 7.95956 10.6834 8.35009 10.2929L17.643 0.999996C18.2939 0.349122 19.3491 0.349122 20 0.999997C20.6509 1.65087 20.6509 2.70614 20 3.35702L12.357 11Z" fill="white"/>
<path d="M8.13113 11L0.488155 18.643C-0.162718 19.2938 -0.162718 20.3491 0.488155 21C1.13903 21.6509 2.1943 21.6509 2.84518 21L12.1381 11.7071C12.5286 11.3166 12.5286 10.6834 12.1381 10.2929L2.84518 0.999996C2.1943 0.349122 1.13903 0.349123 0.488155 0.999997C-0.162719 1.65087 -0.162718 2.70614 0.488155 3.35702L8.13113 11Z" fill="white"/>
</svg>
